<?xml version="1.0" encoding="utf-8"?>
<svg version="1.2" xmlns="http://www.w3.org/2000/svg" xmlns:xlink="http://www.w3.org/1999/xlink" viewBox="0 0 100 100" xml:space="preserve">
	<path d="M91.78,61.354c1.336-1.82,2.095-4.044,2.095-6.354c0-4.558-2.874-8.529-6.989-10.065 c0.491-1.6,0.739-3.251,0.739-4.935c0-9.374-7.626-17-17-17c-4.425,0-8.552,1.673-11.686,4.667 c-2.587-4.272-5.681-8.219-9.222-11.759C44.617,10.809,37.837,8,30.625,8s-13.992,2.809-19.092,7.908S3.625,27.788,3.625,35 c0,6.685,2.413,12.998,6.826,17.946c-3.455,2.451-5.576,6.449-5.576,10.804c0,7.306,5.944,13.25,13.25,13.25h5.5v11h-8 c-1.104,0-2,0.896-2,2s0.896,2,2,2h10c1.104,0,2-0.896,2-2V77h46v11h-8c-1.104,0-2,0.896-2,2s0.896,2,2,2h10c1.104,0,2-0.896,2-2V77 h10.5c4.549,0,8.25-3.701,8.25-8.25C96.375,65.513,94.5,62.704,91.78,61.354z M88.125,73h-70c-5.101,0-9.25-4.149-9.25-9.25 c0-3.71,2.206-7.05,5.619-8.509c0.624-0.267,1.07-0.832,1.185-1.5c0.115-0.669-0.117-1.351-0.617-1.811 c-0.237-0.218-0.472-0.438-0.701-0.667C10.018,46.919,7.625,41.144,7.625,35s2.393-11.919,6.736-16.264 C18.706,14.393,24.481,12,30.625,12s11.919,2.393,16.264,6.736c3.938,3.938,7.284,8.41,9.946,13.294 c0.326,0.599,0.936,0.99,1.616,1.038c0.67,0.039,1.338-0.254,1.745-0.803C62.683,28.919,66.484,27,70.625,27c7.168,0,13,5.832,13,13 c0,1.893-0.412,3.735-1.226,5.479c-0.271,0.58-0.247,1.254,0.062,1.813c0.31,0.561,0.868,0.938,1.503,1.017 c3.37,0.419,5.91,3.296,5.91,6.691c0,2.404-1.243,4.575-3.325,5.808c-0.805,0.476-1.172,1.445-0.885,2.335 c0.288,0.891,1.158,1.451,2.083,1.378c0.124-0.012,0.249-0.021,0.376-0.021c2.343,0,4.25,1.906,4.25,4.25S90.468,73,88.125,73z M24.24,60c0,0.39-0.16,0.78-0.44,1.06c-0.28,0.28-0.67,0.44-1.06,0.44c-0.4,0-0.78-0.16-1.06-0.44c-0.28-0.279-0.44-0.67-0.44-1.06 c0-0.391,0.16-0.78,0.44-1.061c0.55-0.56,1.56-0.56,2.12,0C24.08,59.22,24.24,59.6,24.24,60z M26.69,63.939 c0.28,0.28,0.44,0.67,0.44,1.061c0,0.39-0.16,0.78-0.44,1.06c-0.28,0.28-0.67,0.44-1.06,0.44c-0.4,0-0.78-0.16-1.06-0.44 c-0.28-0.279-0.44-0.67-0.44-1.06c0-0.4,0.16-0.78,0.44-1.061C25.12,63.38,26.13,63.38,26.69,63.939z M20.91,63.939 c0.28,0.28,0.44,0.67,0.44,1.061c0,0.39-0.16,0.78-0.44,1.06c-0.28,0.28-0.66,0.44-1.06,0.44c-0.39,0-0.78-0.16-1.06-0.44 c-0.28-0.279-0.44-0.67-0.44-1.06c0-0.4,0.16-0.78,0.44-1.061C19.35,63.38,20.36,63.38,20.91,63.939z M74.24,57.5 c0,0.39-0.16,0.78-0.44,1.06C73.52,58.84,73.13,59,72.74,59c-0.4,0-0.78-0.16-1.06-0.44c-0.28-0.279-0.44-0.66-0.44-1.06 c0-0.391,0.16-0.78,0.44-1.061c0.56-0.56,1.56-0.55,2.12,0C74.08,56.72,74.24,57.109,74.24,57.5z M76.69,61.439 c0.27,0.28,0.43,0.66,0.43,1.061c0,0.39-0.16,0.78-0.43,1.06C76.4,63.84,76.02,64,75.62,64c-0.39,0-0.78-0.16-1.06-0.44 c-0.28-0.279-0.44-0.67-0.44-1.06c0-0.391,0.16-0.78,0.44-1.061C75.12,60.88,76.13,60.88,76.69,61.439z M70.91,61.439 c0.28,0.28,0.44,0.67,0.44,1.061c0,0.39-0.16,0.78-0.44,1.06C70.63,63.84,70.25,64,69.85,64c-0.39,0-0.78-0.16-1.06-0.44 c-0.28-0.279-0.44-0.67-0.44-1.06c0-0.4,0.16-0.78,0.44-1.061C69.35,60.88,70.35,60.88,70.91,61.439z M37.04,46.09 c0.37,0.37,0.58,0.88,0.58,1.41s-0.21,1.04-0.58,1.41c-0.38,0.38-0.89,0.59-1.42,0.59c-0.52,0-1.03-0.21-1.41-0.58 c-0.37-0.38-0.58-0.89-0.58-1.42s0.21-1.04,0.58-1.41C34.96,45.34,36.29,45.34,37.04,46.09z M59.54,46.08 c0.37,0.38,0.58,0.899,0.58,1.42c0,0.53-0.21,1.04-0.58,1.41c-0.38,0.38-0.89,0.59-1.42,0.59c-0.52,0-1.03-0.21-1.41-0.58 c-0.37-0.38-0.59-0.89-0.59-1.42s0.22-1.04,0.59-1.41C57.46,45.34,58.79,45.34,59.54,46.08z M57.074,60.667 C55.734,64.455,52.137,67,48.125,67c-4.012,0-7.608-2.545-8.949-6.332c-0.369-1.042,0.176-2.185,1.218-2.554 c1.04-0.37,2.184,0.176,2.553,1.218C43.723,61.526,45.804,63,48.125,63c2.321,0,4.402-1.474,5.179-3.667 c0.368-1.042,1.512-1.588,2.553-1.219S57.443,59.626,57.074,60.667z"/>
</svg>
